<svg width="24" height="24" viewBox="0 0 24 24" fill="none" xmlns="http://www.w3.org/2000/svg">
<path d="M3.41719 3.65137L3.28125 3.78731V4.61231V5.43262L2.17032 5.44668C0.942191 5.46075 0.904691 5.47012 0.768754 5.75606C0.684379 5.93887 0.735941 6.16387 0.895316 6.30918C0.989066 6.39356 1.17657 6.39825 5.64375 6.40762C9.28594 6.417 10.3125 6.40762 10.4063 6.36075C10.4719 6.32793 10.5609 6.22481 10.6125 6.12637C10.6875 5.967 10.6922 5.9295 10.6313 5.77481C10.5188 5.46543 10.4016 5.43731 9.17813 5.43731H8.10938V4.66387C8.10938 3.67012 8.04375 3.51543 7.61719 3.51543C7.49063 3.51543 7.41094 3.55293 7.30782 3.65137L7.17188 3.78731V4.61231V5.43731H5.69532H4.21875V4.61231V3.78731L4.08282 3.65137C3.975 3.54356 3.90469 3.51543 3.75 3.51543C3.59532 3.51543 3.525 3.54356 3.41719 3.65137Z" fill="#FF7D1A"/>
<path d="M19.1953 4.42002C18.8531 4.77158 18.0141 5.91064 17.5734 6.62314C16.8094 7.84658 16.2234 9.23408 16.0547 10.2044C15.9656 10.7153 15.9656 11.5966 16.0547 12.0231C16.1906 12.6841 16.6875 13.4856 17.2359 13.9356C17.7188 14.3294 18.3844 14.6435 18.9516 14.7372L19.125 14.77V12.4778C19.125 11.2169 19.1391 10.12 19.1531 10.0356C19.2 9.81064 19.3828 9.65596 19.6031 9.65596C19.8375 9.65596 19.95 9.71689 20.0391 9.89033C20.1 10.0075 20.1094 10.3731 20.1094 12.3981V14.77L20.2875 14.7372C21.9516 14.4372 23.1281 13.1341 23.2781 11.4372C23.4047 9.96064 22.5328 7.72002 21.0234 5.64346C20.4188 4.81846 19.9781 4.28408 19.8469 4.22314C19.5984 4.11064 19.4484 4.15752 19.1953 4.42002Z" fill="#FF7D1A"/>
<path d="M1.82812 7.69667C1.82812 8.64355 1.9875 9.2998 2.36719 9.94667C2.925 10.8982 3.97969 11.6389 4.99219 11.7935L5.20313 11.8217V13.1576C5.20313 14.6248 5.24531 15.1732 5.41406 15.8435C6.00469 18.2107 8.01094 20.0295 10.4531 20.4185C10.8328 20.4795 11.2547 20.4889 12.8766 20.4701C14.6531 20.4514 14.8734 20.442 15.2344 20.3529C16.0547 20.156 16.7578 19.8514 17.4281 19.3967C17.9109 19.0685 18.5813 18.4123 18.9375 17.9154C19.4578 17.1935 19.9688 15.9701 19.9688 15.4592C19.9688 15.0982 19.6078 14.892 19.2703 15.0701C19.125 15.1404 19.1016 15.1967 18.9141 15.8201C18.6562 16.6732 18.1969 17.4279 17.5406 18.056C16.7859 18.7779 16.0172 19.1904 14.9531 19.4295C14.6719 19.4951 14.2781 19.5139 12.9703 19.5326C10.8234 19.5607 10.2609 19.4951 9.34219 19.1107C8.57813 18.7873 7.73438 18.1264 7.21406 17.442C6.89062 17.0154 6.49219 16.1904 6.34219 15.6326C6.22031 15.1732 6.21563 15.131 6.19688 13.4951L6.17813 11.8264L6.47344 11.7701C8.01094 11.4654 9.25781 10.1576 9.51094 8.57792C9.53906 8.40917 9.5625 8.01542 9.5625 7.69667V7.1248H5.69531H1.82812V7.69667Z" fill="#FF7D1A"/>
</svg>
